HIERARCHY
ROOT Hips
{
    OFFSET 0.000000 0.000000 0.000000
    CHANNELS 6 Xposition Yposition Zposition Zrotation Xrotation Yrotation
        JOINT Chest
        {
            OFFSET -0.000000 31.471069 -0.000000
            CHANNELS 3 Zrotation Xrotation Yrotation
            JOINT Neck
            {
                OFFSET -0.000000 23.202770 0.000000
                CHANNELS 3 Zrotation Xrotation Yrotation
                JOINT Head
                {
                    OFFSET -0.000000 11.000000 0.000000
                    CHANNELS 3 Zrotation Xrotation Yrotation
                    End Site
                    {
                        OFFSET -0.000000 17.000000 0.000000
                    }
                }
            }
            JOINT LeftCollar
            {
                OFFSET -0.000000 23.202770 0.000000
                CHANNELS 3 Zrotation Xrotation Yrotation
                JOINT LeftShoulder
                {
                    OFFSET 21.000000 -0.000000 0.000000
                    CHANNELS 3 Zrotation Xrotation Yrotation
                    JOINT LeftElbow
                    {
                        OFFSET 23.506504 0.000000 0.000000
                        CHANNELS 3 Zrotation Xrotation Yrotation
                        JOINT LeftWrist
                        {
                            OFFSET 26.183235 0.000000 0.000000
                            CHANNELS 3 Zrotation Xrotation Yrotation
                            End Site
                            {
                                OFFSET 0.000000 -15.000001 0.000000
                            }
                        }
                    }
                }
            }
            JOINT RightCollar
            {
                OFFSET -0.000000 23.202770 0.000000
                CHANNELS 3 Zrotation Xrotation Yrotation
                JOINT RightShoulder
                {
                    OFFSET -21.000000 0.000000 0.000000
                    CHANNELS 3 Zrotation Xrotation Yrotation
                    JOINT RightElbow
                    {
                        OFFSET -23.506504 0.000000 0.000000
                        CHANNELS 3 Zrotation Xrotation Yrotation
                        JOINT RightWrist
                        {
                            OFFSET -26.183235 0.000000 0.000000
                            CHANNELS 3 Zrotation Xrotation Yrotation
                            End Site
                            {
                                OFFSET -0.000000 -15.000001 0.000000
                            }
                        }
                    }
                }
            }
        }
    JOINT LeftHip
    {
        OFFSET 12.000000 0.000000 0.000000
        CHANNELS 3 Zrotation Xrotation Yrotation
        JOINT LeftKnee
        {
            OFFSET -0.000000 -41.026867 0.000000
            CHANNELS 3 Zrotation Xrotation Yrotation
            JOINT LeftAnkle
            {
                OFFSET -0.000000 -42.711906 0.000000
                CHANNELS 3 Zrotation Xrotation Yrotation
                End Site
                {
                    OFFSET -0.000000 -5.000000 17.000000
                }
            }
        }
    }
    JOINT RightHip
    {
        OFFSET -12.000000 0.000000 0.000000
        CHANNELS 3 Zrotation Xrotation Yrotation
        JOINT RightKnee
        {
            OFFSET -0.000000 -41.026867 0.000000
            CHANNELS 3 Zrotation Xrotation Yrotation
            JOINT RightAnkle
            {
                OFFSET -0.000000 -42.711906 0.000000
                CHANNELS 3 Zrotation Xrotation Yrotation
                End Site
                {
                    OFFSET -0.000000 -5.000000 17.000000
                }
            }
        }
    }
}
MOTION
Frames:    13
Frame Time:    0.010000
-96.616615    90.413734    -69.737892    1.216170    -7.457511    31.503180    0.423866    7.650937    -4.809040    0.861074    3.097536    4.914365    -16.567799    -10.244215    3.485991    -20.531519    0.142772    -0.633829    -51.754242    19.794538    -5.681121    -9.889588    9.235270    -85.890884    129.941742    -6.647398    13.702064    25.803034    -1.885667    -8.070093    16.327938    57.143940    40.149853    -2.598184    -1.560627    60.860935    -148.729126    -24.118719    -5.757527    -8.514604    14.554220    -3.876959    -2.612798    1.691196    12.911675    9.387818    -11.404039    38.410740    -7.775538    -5.710024    0.797133    0.431548    27.747974    -10.059901    13.003064    1.115892    -13.122744    
-96.609169    90.419235    -69.749512    1.232756    -7.506243    31.418921    0.490399    8.033944    -4.845782    -0.396171    2.030438    6.103281    -15.242349    -10.048729    4.751947    -20.474920    -0.077864    1.650571    -51.946873    19.208010    -6.591903    -9.817304    9.152947    -86.332474    129.414536    -7.140905    13.631658    25.495388    -1.626047    -6.216386    15.840681    57.565063    40.762428    -2.469814    -1.412932    60.499290    -149.750732    -24.599628    -7.452673    -8.548590    14.641756    -4.293186    -2.610211    1.593422    13.323184    9.442503    -11.372264    38.508835    -8.022428    -6.012826    1.595746    1.372485    28.237106    -11.340007    12.689240    1.336699    -12.835470    
-96.603531    90.364365    -69.705734    1.129913    -7.378157    31.161890    0.457909    7.883114    -4.710390    -0.483155    2.340065    6.122674    -15.038438    -10.452043    4.729796    -20.479490    -0.210773    1.902150    -51.866142    19.305418    -6.542615    -9.924548    9.428099    -86.514061    129.737198    -7.300354    12.948171    25.577478    -1.501388    -6.036136    14.908236    57.798294    41.745232    -2.704414    -1.650324    60.150043    -150.517303    -24.779425    -7.144719    -8.556792    14.506423    -4.017514    -2.628794    1.589128    13.139241    9.424160    -11.410762    38.608383    -7.926200    -6.502638    1.487260    1.274857    28.719130    -11.066540    12.520170    1.418723    -13.021708    
-96.610023    90.353386    -69.696442    1.088956    -7.332808    31.024378    0.462468    7.889792    -4.651633    -0.514402    2.349578    6.111052    -14.938775    -10.515063    4.717679    -20.449039    -0.281119    1.933920    -51.894363    19.263874    -6.481851    -10.075868    9.627061    -86.624741    129.779678    -7.622035    12.585794    25.606396    -1.424865    -5.984903    14.472179    57.791641    42.257904    -2.894800    -1.770698    59.883476    -151.160828    -24.960117    -7.455717    -8.567935    14.466236    -3.996981    -2.637865    1.563060    13.178705    9.431495    -11.419378    38.660851    -7.946908    -6.823466    1.653725    1.456988    29.094114    -11.294600    12.369128    1.508366    -12.979092    
-96.621025    90.342079    -69.686333    1.036650    -7.269771    30.865145    0.469045    7.884310    -4.568634    -0.565519    2.331595    6.120382    -14.799390    -10.550382    4.734742    -20.424303    -0.328751    2.017771    -51.904282    19.220411    -6.481160    -10.228236    9.801673    -86.772957    129.798996    -8.017569    12.129936    25.624308    -1.374106    -5.890151    14.056608    57.816864    42.739552    -3.057437    -1.849218    59.620747    -151.881866    -25.193010    -7.680045    -8.578650    14.405654    -3.952130    -2.649619    1.537112    13.213876    9.439477    -11.429231    38.709316    -7.957282    -7.210705    1.813124    1.623085    29.532579    -11.513481    12.179417    1.618434    -12.936373    
-96.635300    90.330284    -69.674507    0.975294    -7.190592    30.689909    0.477464    7.865949    -4.460865    -0.611222    2.296949    6.126966    -14.633943    -10.550741    4.756190    -20.403666    -0.367600    2.100964    -51.904388    19.184591    -6.499649    -10.383320    9.982031    -86.937347    129.871567    -8.452702    11.641172    25.637535    -1.335688    -5.791360    13.686456    57.830246    43.166016    -3.192350    -1.899505    59.372501    -152.612427    -25.494780    -7.806354    -8.589046    14.327528    -3.883275    -2.663307    1.510920    13.244130    9.447490    -11.439633    38.750443    -7.959369    -7.656152    1.965551    1.777753    30.027641    -11.727017    11.939004    1.749527    -12.897765    
-96.651169    90.318001    -69.660027    0.908855    -7.098683    30.506575    0.486605    7.838017    -4.332675    -0.648730    2.248765    6.128198    -14.442432    -10.518492    4.778644    -20.386723    -0.394963    2.175427    -51.898796    19.144377    -6.529399    -10.553944    10.188591    -87.100716    130.021378    -8.915408    11.140326    25.646185    -1.316675    -5.693216    13.372319    57.829071    43.526981    -3.307344    -1.953215    59.146175    -153.307983    -25.857773    -7.851171    -8.599882    14.237653    -3.794308    -2.677680    1.483799    13.269095    9.454644    -11.450205    38.782379    -7.956908    -8.146884    2.110690    1.928394    30.570276    -11.941417    11.643406    1.897578    -12.865989    
-96.666824    90.305290    -69.641945    0.841861    -6.999058    30.324379    0.494175    7.804690    -4.193326    -0.674841    2.195847    6.117538    -14.225492    -10.463745    4.795143    -20.370420    -0.422333    2.227264    -51.897320    19.098518    -6.554093    -10.739204    10.407235    -87.269463    130.222992    -9.399831    10.626290    25.656033    -1.283218    -5.604527    13.134324    57.774879    43.791908    -3.372770    -1.960498    58.974201    -153.953873    -26.251842    -7.832617    -8.611731    14.144113    -3.691334    -2.691112    1.454162    13.288724    9.459850    -11.460433    38.804020    -7.953045    -8.667263    2.244272    2.079602    31.151527    -12.154479    11.300998    2.049655    -12.851828    
-96.680687    90.292191    -69.619461    0.778745    -6.896240    30.152391    0.499032    7.770473    -4.053096    -0.694324    2.141249    6.096589    -13.980095    -10.395359    4.806049    -20.355186    -0.401939    2.258925    -51.895569    18.989325    -6.593383    -10.977716    10.706741    -87.397263    130.530243    -9.884378    10.136234    25.665861    -1.249749    -5.521682    12.947853    57.683178    43.992699    -3.437023    -1.981330    58.847050    -154.496368    -26.659554    -7.778077    -8.625451    14.054654    -3.581460    -2.702184    1.420240    13.303016    9.462410    -11.469986    38.815205    -7.950644    -9.202312    2.358351    2.232100    31.763048    -12.356023    10.932043    2.184516    -12.871473    
-96.691742    90.278641    -69.591995    0.722414    -6.793632    29.998920    0.500608    7.737959    -3.921333    -0.706949    2.088814    6.062041    -13.708307    -10.318824    4.805417    -20.335817    -0.435465    2.263198    -51.917587    18.909525    -6.598403    -11.183381    10.913021    -87.596962    130.744934    -10.385383    9.586202    25.676325    -1.222649    -5.449996    12.817579    57.558670    44.119778    -3.504767    -1.999601    58.776638    -154.920395    -27.058760    -7.697050    -8.641175    13.975195    -3.472452    -2.709518    1.380270    13.312250    9.462399    -11.477953    38.816055    -7.952182    -9.739251    2.443907    2.386170    32.396336    -12.533577    10.559109    2.275090    -12.933716    
-96.699554    90.264442    -69.558746    0.674456    -6.693339    29.870573    0.499867    7.709027    -3.804848    -0.716787    2.036592    6.013793    -13.408677    -10.235352    4.794734    -20.317589    -0.406749    2.248286    -51.940754    18.744116    -6.610282    -11.457841    11.260837    -87.711792    131.144302    -10.822034    9.137000    25.680531    -1.262789    -5.386343    12.725005    57.464439    44.198292    -3.619751    -2.088126    58.744583    -155.195984    -27.448545    -7.597039    -8.658365    13.909966    -3.370098    -2.712260    1.332415    13.314978    9.460022    -11.483665    38.807953    -7.960367    -10.267551    2.494697    2.545238    33.041424    -12.677991    10.197268    2.292176    -13.029127    
-96.704170    90.249420    -69.518684    0.635309    -6.595933    29.772343    0.497106    7.682636    -3.708335    -0.722446    1.987627    5.948366    -13.084211    -10.146889    4.769409    -20.299517    -0.378047    2.217472    -51.965034    18.596329    -6.633109    -11.713078    11.525343    -87.878296    131.455139    -11.248298    8.635793    25.692833    -1.219514    -5.333516    12.736823    57.257927    44.121372    -3.569659    -2.005473    58.851421    -155.458206    -27.812769    -7.428259    -8.676462    13.861454    -3.278310    -2.709248    1.275108    13.308375    9.455082    -11.486918    38.792496    -7.978100    -10.779184    2.507236    2.715090    33.686581    -12.783189    9.850199    2.209036    -13.132870    
-96.705887    90.233513    -69.470634    0.604426    -6.500859    29.707363    0.493025    7.656607    -3.633756    -0.724720    1.944893    5.865643    -12.736149    -10.056404    4.727666    -20.281712    -0.411652    2.182337    -51.995831    18.532412    -6.626327    -11.897247    11.684848    -88.112946    131.707809    -11.609845    8.142804    25.703825    -1.186124    -5.291730    12.718491    57.039494    44.070656    -3.626305    -2.033019    58.987827    -155.480133    -28.168234    -7.249597    -8.694878    13.830257    -3.197192    -2.699209    1.207688    13.287066    9.446431    -11.488287    38.771969    -8.007076    -11.267440    2.481239    2.899951    34.316830    -12.843009    9.514406    2.008341    -13.214496    
